<?xml version="1.0" encoding="UTF-8" standalone="no"?>
<svg viewBox="0 0 1000 800" xmlns="http://www.w3.org/2000/svg">
<g transform="matrix(1.20408,0,0,1.22264,248.86402,-250.88836)">
<path d="m210.21671,205.20354c14.09567.18156 22.01229,8.32575 26.58153,15.46183s1.79722,14.94912 2.83842,23.60315c.75419-1.96027 2.21576-3.50637 4.16115-.4659s.4167,9.93162-1.54469,13.81319-5.29184,3.88525-5.42092,10.81284c-.0873,4.68766-3.58149,6.30028-3.50724,12.88431 .0719,6.3767-2.11683,11.128 2.98543,14.81497s18.86918,13.07112 24.7979,14.8249c18.25831,5.40103 27.58912,3.15778 39.69984,18.21826 4.84925,6.18145 8.44307,12.56815 9.95394,20.60775s-1.45833,14.86925-.89782,25.36278 4.43707,21.54362 5.19894,31.29968-3.10517,23.69276-2.64544,34.22092 5.34198,18.78817 5.65282,32.8833-.91943,24.44618-.69986,33.24112c.21702,8.69318-.95325,13.74329-.024,21.69361s.27955,14.88893 1.95964,21.76151c-.0237,2.16551-.87117,7.50036-1.30313,14.77168-.33098,5.57152.33849,9.62775-1.04968,14.1151-1.63529,5.28622-2.03457,4.99724-4.30688,7.799-1.45617,1.79547-2.35602,6.24722-4.47977,8.47435-2.2702,2.38069-5.74608,2.48455-6.5966,2.60735-4.67934.67562 3.07772-24.38191 2.67367-27.49034-.41923-3.2252-.51694-5.80118-7.53399-11.80081-3.38628-2.89528-7.3038,11.82938-10.86173,15.76083-2.36474,2.613-3.65098,3.72619-6.43967,3.24428-3.21174-.55502 5.07601-20.55343 7.84937-27.94527 3.23871-8.63215 7.20736-14.752 7.79137-23.66318s-4.4023-12.48803-6.16469-21.27367-2.86802-8.87608-5.42091-27.70837 2.04737-22.99888.25594-35.8526-11.90842-31.73689-11.72559-48.52404c-.83095,9.23328-1.01316,20.24975-2.24954,28.8141s-4.9048,12.15585-4.77901,20.54978 1.76409,17.88647 1.4337,27.71832c-.21718,6.4629 10.2506,24.90464 10.51385,59.25985 .12092,15.78086 1.84269,39.48966.9558,56.87034s-5.14829,34.64892-6.69063,46.3565-5.12914,37.24239-5.25692,45.40069c-.28895,18.44856 4.23384,23.67487 3.82322,42.7587-.0693,21.67546-9.0725,46.16616-12.42546,64.18013-1.70532,9.83719.42813,12.08945.9558,17.87174s-2.06775,8.94437-1.9116,13.05664 1.02886,10.50171.9558,15.65956c1.45758,12.15427 18.22713,20.17824 10.99174,24.73068-9.14266,5.27132-40.83443,4.27244-48.746-.4779-10.35697-6.21864.0495-10.08612 1.91161-16.70253s3.61218-11.11194 3.82322-16.25468-2.27899-12.39734-1.91162-18.03404 1.51256-9.4475 1.91161-22.32012-4.9031-46.96046-4.77902-62.85765 1.53502-25.20655 1.43372-39.22103-1.86337-19.1026-4.30113-33.45313-3.84043-28.98971-5.25692-43.01118-1.09023-37.59435-2.86741-59.25986c-.82137,16.08875.82033,46.41053-.4779,58.78196s-1.03251,21.18458-3.34532,32.97523-5.62031,26.94655-5.25692,36.79846 3.18206,14.80021 5.25693,24.95309 2.32493,16.31718 1.43369,27.92872-4.59454,31.9304-5.73481,43.19152-1.87478,21.98021-.47791,31.34015 3.15621,12.42659 3.82322,17.93665 2.74193,10.88379.4779,14.84412-6.37163,1.38467-10.99174,3.71103 .1807,9.16946-16.24866,11.13309c-8.11023.96934-26.93967,3.92674-34.88685-3.7862-9.91712-9.62479 21.89934-22.91517 26.28461-37.89625s.90297-18.61297-1.4337-33.73889-7.97747-36.55678-9.46965-52.98402 1.76332-32.21377.38951-47.58882-3.86259-32.2279-6.69063-49.70181-7.30523-38.28407-7.16853-58.30405c.0502-7.35197 2.41939-23.56727 3.48349-37.88837 1.97216-26.54238 14.42671-48.0194 15.04867-55.30422 .81166-9.50665-.1969-23.49909.5909-29.95567 .79808-6.5408-3.09741-11.37698-3.79623-17.05679-1.83049-14.87766-.39068-16.33653-2.56345-31.45371 .4725,20.41482-9.7899,34.7719-10.85177,41.66942-1.50611,9.78309 1.36284,29.05984-2.38952,41.57746-3.61793,18.76332-11.34616,29.78984-12.13532,49.33989-.12211,7.29083 7.73573,19.11477 6.91236,22.89995-1.59959,7.35372.54662,12.65709-.64735,14.56693-.96914,1.55022-5.84051,2.24068-7.62597,7.68472-1.83198,5.58589-3.71475,1.93203-8.65348,2.68127-3.94252.59811-3.15484-1.0194-7.59934-1.60506-4.55477-.60021-3.7065-2.87081-6.72244-4.44608-2.24008-1.17002-10.0136-1.94571-10.13094-12.25669-.0515-4.52519-.8696-7.86209 3.40944-16.08757 4.84306-9.30968 8.11244-27.6286 7.82829-43.18336-.23054-12.6195-.89373-35.29848 0-51.61342 .82024-14.97329 4.90903-15.36194 7.64643-28.19622 2.85462-13.38384-4.00834-13.39796 5.42092-50.85557 4.5875-18.22379-2.61706-25.91594 7.22651-39.58387 7.04363-11.32999 20.04586-9.45044 36.88044-14.97894 6.32394-4.16505 19.87224-8.56118 22.15744-13.57922s.37171-9.18177.4779-15.05392c.10536-5.82637-4.80172-9.38827-4.54006-13.38125 .30352-4.6318-3.03445-7.21688-4.30112-10.2749s-2.83907-12.89057-1.43371-15.58979 2.5639.0796 3.86421,2.23255c-.81422-5.91841-1.07125-20.03321 3.9632-26.54757s14.35977-12.66153 23.68513-12.54142z" fill="#deaa87"/>
<path d="m162.43408,473.57671 .78726-7.863c44.76782,13.8231 74.58354,4.58555 103.37876-2.73443l.82543,7.83388c-38.78017,22.37449-73.74994,24.07383-104.99145,2.76355z" fill="#999"/>
<path d="m209.4359,582.31889c-16.80685,3.00966-55.28857,7.62428-64.21487-5.75287-.40155-5.92189.004-14.32163.38052-21.46775 .59697-11.31853 1.42398-22.66951 3.37118-33.83525 1.76769-10.13635 4.48096-20.10753 7.51722-29.93868 1.77932-5.76129 6.25535-18.64608 6.25535-18.64608 12.55887,6.37968 51.17047,14.40258 104.51759-2.34352 0,0 5.81139,24.97143 7.59992,34.23789 2.17914,11.29019 3.61533,38.69764 3.81973,50.87274 .0746,4.44175-.51222,14.13963-.5967,22.41886 3.63869,13.35126-64.31665,13.7631-66.81777,4.52213-.11747-3.77722-1.91655-32.80149-1.91655-32.80149s-.43313,5.61962-.40323,12.34134c.0333,7.49248.533,16.35431.59935,20.32927z" fill="#b3b3b3"/>
<path d="m248.95812,325.18339c-2.76364.56098-4.48298-.0703-7.05712,1.36265-3.10455,1.34781-4.83374.93383-8.16345,1.50928-1.88635.34903-11.82251,4.90683-10.93919,3.47775 .85981-1.39104 11.82995-5.66472 13.23925-5.92352 6.03739-1.27704 5.04387-.40707 11.02437-1.89884 2.02029-.39835 7.31475-1.68011 9.37361-1.54719 1.32976-.76483-2.89746,1.3114-3.75556,2.59461-.4231.91539-3.19721-.44554-3.72191.42526z" fill="#a05a2c"/>
<path d="m185.71818,326.14024c-2.33115-.87782-4.05552-.3106-5.38011-.93029-1.4198.10597-1.94166.6653-3.19699-.20851-1.41524-1.4675-4.33061-1.46517-6.12441-2.57304 1.77561-1.25338 12.05602.81844 13.1572,1.30868 4.10312,1.84776 7.66914,1.75315 12.02002,2.74131 2.13804.47597 4.8608,1.17898 6.87491,2.04849 1.02966,1.02132-3.86648,1.91847-4.04922.66298-2.11102-.0925-4.01039-1.34867-7.14966-.97547-3.75949-1.27861-3.52664-1.95954-6.15174-2.07415z" fill="#a05a2c"/>
<path d="m207.0154,391.66863c-1.13672,3.1731-8.77946,3.72535-12.24414,3.69746-8.84946-.0712-12.80787.93171-21.6443.71249-2.50446-.0621-10.83061.61426-15.35147-3.75238 2.70247,3.76077 4.86256,4.39588 7.90195,5.07649 4.00085,1.19134 14.24511.18767 18.31211.32548 9.11029.30871 12.82172-.46131 21.9279-1.07471 2.4539-.76732 3.26751-6.21161 3.10384-9.09634 .53901-2.57512.71133-8.87227.60807-11.98653-.64059,6.40251-.49469,10.18223-2.61396,16.09804z" fill="#a05a2c"/>
<path d="m269.91215,389.62278c-3.13209,3.05382-10.76895,10.02176-13.04783,9.5436-9.9785-.0179-26.68464-.41724-36.63907-1.31412-2.05795-.36649-5.61193-3.35764-8.02589-6.87927 5.21259,3.10098 6.90616,4.34579 8.55941,4.9154 8.69607-.47246 25.6181.80715 33.59953.9415 4.17358.75245 16.43778-9.42909 22.3124-20.04833-.27601,3.52383 1.24723,3.16635-4.67664,15.97451 .003-5.40251.33503-5.48983-2.08191-3.13329z" fill="#a05a2c"/>
<path d="m205.04263,423.66648c-.11816,4.31492 1.64662,8.19479 1.3004,12.50637-.13468,4.04251-1.72983,5.84539-3.388,7.25256 3.64895.64091 3.56658,12.16237 1.49907,11.29016-6.62663,5.70792-19.43359-1.43815-16.19704.37404 1.16734,4.6362 5.02511,3.46821 8.32739,2.96252 2.81283-.30896 3.31704,1.66017 6.09845.71642 1.86609-.67809 4.64649-1.25348 4.4626-3.03566-.44479-4.02014 2.02076-12.46693 4.06935-11.48994-2.92836-3.54637-3.63802-6.38947-3.3025-10.9848 .0409-1.83358 2.6825-9.48776 2.41525-11.30469-.79532-.36486-1.62548-.90761-2.46896-.96928-1.91612,1.65818-3.73382.30586-2.81601,2.6823zm-15.84019,34.44275c-.23388-.0222.11224.10978 0,0z" fill="#a05a2c"/>
<path d="m199.88874,439.44115c-3.26914.82325-5.68566,2.83583-10.91577.93447-2.43373-.88476-2.1417-1.77324-2.35555-2.9129 1.89947-.67936 2.61412,1.57984 4.59346,1.31006 2.53866-.18512 3.14103-.92208 5.62092-.39749 .86162.0373 3.41909-.20335 4.6616-1.84715 .71778-4.24696 2.84949.0741-1.60466,2.91301z" fill="#a05a2c"/>
<path d="m211.42752,434.79786c3.78941.23561 5.62448,3.96035 9.42066,4.14804 1.88127.003 6.40153-.62606 8.28116-.56546 .33139-.14018 6.55648-1.64083 6.2251-1.50065l-4.5962,3.00521c-3.0415,1.1347-10.30073,1.76526-13.53375,1.67666-4.11445-.20531-2.84481-2.40053-4.29366-4.77962-.3153-.1812-1.81861-2.16538-1.50331-1.98418z" fill="#a05a2c"/>
<path d="m224.71697,456.84896c1.44185.31504 13.42064-5.72941 13.71109-4.4279 .16759.88213-7.50246,4.67458-7.87288,5.52059-8.028,1.07274-5.907,2.3234-13.78856.71129-.87027-.56507-2.78144-1.38171-3.45498-2.87606s-1.51043-6.38332.15842-5.33703c1.55007,6.59859 8.55218,6.56476 11.24691,6.40911z" fill="#a05a2c"/>
<path d="m196.24096,422.18036c.22826,2.75344-7.25399,10.23071-10.80849,10.88467-2.39146.43994-6.01771,1.60411-4.41114-.52809l.33156-2.1577c3.4941,4.36925 8.15246-4.42389 10.39968-5.38653 1.55101-.66443 2.51546-.34581 4.48839-2.81235z" fill="#a05a2c"/>
<path d="m181.64955,437.51144c.59904,3.34028.43198,6.69548.20612,7.10402-.45841.82917-1.56445,5.35358-2.04945,6.06037-1.38348,2.01612-.75041,2.62391-2.39062,4.4335-.23286.37472-2.96881,1.94301-2.73595,1.5683l2.82842-5.3033c2.29959-3.45361-.26258-6.68966 2.99209-7.88561 .24698-2.7115-.0178-4.44615 1.14939-5.97728z" fill="#a05a2c"/>
<path d="m190.60976,279.10769c3.22797,5.93435 4.45676,8.7809 7.39219,10.55181 3.14199,1.89552 5.345,6.87197 10.28147,9.15208 3.81941,1.92127 10.69344.16091 13.08435-1.99973 1.93679-1.75026 5.39591-4.86619 7.15272-8.08334 1.84354-3.37596 1.9664-6.87193 3.19815-9.39101 .56599-1.33745-4.90257,4.04409-5.27692,5.23184-1.14439,1.22227-2.05925,4.14244-3.68715,4.78383-5.93924,4.08471-15.23058,4.86211-21.03072.36811-4.63996-3.77264-7.05496-6.28986-11.11409-10.61359z" fill="#a05a2c"/>
<path d="m232.58126,266.41698c-.30725.55058-2.36416,2.70229-5.44624,3.36492 3.55765.71479 3.96894-1.09427 3.97624,4.66504 .84896,3.33848 1.96924,1.00778 3.46017-2.33608 .47847-1.0731.70998-2.75709.95507-3.96338 .35903-2.90779.47451-3.031.89348-4.22858 .42965-1.41281-.077-1.42741.66275-2.72596-2.08043,1.41042-3.44606,2.27701-3.74118,3.61888z" fill="#a05a2c"/>
<path d="m231.90634,244.70298c-2.0647.31011-6.11717-.022-7.99906,1.09161-1.73358,1.12557-6.88134,1.8935-8.93909,1.42823-2.00661.16326-1.84131,2.16563-1.91992,4.06862-.58716,3.43635 1.78384,5.42661.99356,8.85194-.28453,1.07429 2.32849,3.99638 2.95208,2.91818 .68612-.98786-1.24472-2.95988-1.16144-4.07424-.0971-2.68745-1.23638-4.12835-.98332-6.82915 .18978-1.07148 2.71334-3.38222 3.90024-3.31702 1.537-.0373 3.21037.39445 4.60664-.47151 1.535-.67704 2.50826-1.75005 3.53193-2.25841 1.85229-.64878 4.40833.19342 5.01838-1.40825z" fill="#a05a2c"/>
<path d="m188.59303,245.80725c2.07156.22326 8.16847,1.14535 10.26571,1.10658 1.25018-.0402 2.99968.0495 4.22255.40114 .72697.18673 2.43099,1.08714 2.84304,1.83508 .16174.82334-3.65542-1.19314-4.23987-.98593-1.17598-.25878-3.46967-.0161-4.67618.10493-2.50939.25293-4.41181.77014-6.75227-.22482 .0979-.58364-3.56701-2.01099-1.66298-2.23698z" fill="#a05a2c"/>
<path d="m240.2086,246.19872c-.6574.75279-.55325,1.44094-.77213,2.36637-.21685.90086-.30518,1.3299-.94008,2.00619-.36022.53757-.6041,2.92158.0309,3.19856 .48759.14371.92915-2.50069 1.18943-2.90108 1.19155-1.27817 1.10905-1.64003 1.27989-3.35276 .61993-1.23472 1.09769-2.06826 1.43172-3.19693-1.2556-.99524-1.75595.90745-2.2197,1.87965z" fill="#a05a2c"/>
<path d="m222.6679,306.30545c.37698,2.51974.78306,5.25733.63397,7.79547 .0726.89622.72686,2.20229 1.48471,2.83329 .6412.56046 6.54164-.24022 7.39602-.20435 .33688.15188-3.90146,2.24163-4.23833,2.08976l-4.47754,2.44998c-1.93175-.52511-.79454-1.16986-1.98576-2.84191-1.34739-2.00549-.68288-3.10538-.82715-5.50952-.14908-2.53814.51044-7.47225.88742-9.99199 0-.36641 1.12666,3.01286 1.12666,3.37927z" fill="#a05a2c"/>
<path d="m131.75672,559.66748c-3.18135-4.22727.35264-2.80103-.67179-5.77214 3.50687-2.84541 4.10075-2.43329 2.42939.00028 .56256,1.20253.93427,3.61725 1.00484,5.01139-3.492.23927-.40944.48434-2.01314,4.70928 0,.35827.36187-2.0625-.7493-3.94881z" fill="#a05a2c"/>
<path d="m157.77549,392.3262c-.0146,16.75733-4.99605,26.28775-10.82503,41.50533-.50076-11.96755.39049-14.07814 1.69738-17.75771 3.72135-10.47744.47811-10.60114-1.40795-20.79751-.18679-1.87758-.99797-34.56248 1.1407-34.60241 .87257-.0868 3.00162,24.78499 9.3949,31.6523z" fill="#a05a2c"/>
<path d="m279.42664,409.85486c2.22827,5.44201 6.86274,15.28583 7.33886,21.25076-4.91665-11.036-4.53604-2.21789-5.23581-11.64107-.42047-5.66235-4.59656-7.85915-5.32407-13.55556 .35664-1.79102-.21575-8.18052 1.21332-13.62549 .58865,10.12868 1.61322,17.44423 2.0077,17.57136z" fill="#a05a2c"/>
<path d="m205.50367,718.04074c2.19832,21.44753-4.12814,17.50896-4.98066,38.85977-3.47194-1.11029-3.96356-10.42693-.79612-17.27695 4.97567-10.76051-.0505-2.84622 1.90993-14.44075 1.25309-11.13123 1.04131-8.12685.029-19.30281-.0521-2.9934 1.74,10.57681 3.83788,12.16074z" fill="#a05a2c"/>
<path d="m228.26493,847.95298c5.33948-.61741 7.38119-1.67469 4.31037,2.9571 1.79319,4.34955 6.84662-1.60512 10.46148.7397 3.89852,1.9491 1.45528-3.3292 7.04439-1.95684 3.7361,5.31273 3.94199.18049 7.92851.0489 3.36076-1.94652 5.03259,3.83995 5.84491-.79278-.94217-5.24431-4.32367-1.86102-7.8277-.86847-4.22749.37441-8.92133-3.65761-13.16053-1.22704-4.46101.58254-23.04399-4.47263-14.60143,1.09948z" fill="#a05a2c"/>
<path d="m151.60869,834.98423c-3.66455-1.17781-6.51065,3.01513-4.15544,6.03434 2.8368-5.45787 8.80381-2.16472 10.65162-1.13989 3.15197,1.50031 4.621-1.08598 7.64379.84844 2.40413-2.74765 5.35208-4.88341 7.97941-1.0936 1.34281,2.9437 1.38367-5.07395 5.94312-7.18059-1.43881-4.06882-2.34923.0185-4.6522,2.83607-1.76405.9945-5.01381,1.01702-5.16742-1.22969-3.05843-.71134-5.37332,3.09797-7.76141.68686-3.07289-3.11677-1.83225,2.27745-4.92115.0573-3.13516.83543 1.71911-3.49686-5.56032.18072z" fill="#a05a2c"/>
<path d="m194.61609,824.51c2.09973-.44024 6.94817-1.99771 6.09234-5.02588 .87927-2.57306 2.71113-.36207 1.97827,2.64874-.21421,1.54907.59551,2.8916-1.96951,2.79979-4.73907-.16964-1.97625.80179-6.1011-.42265z" fill="#a05a2c"/>
<path d="m257.24773,694.80817c-6.55577,3.6421-5.78857,6.91861-11.81036,6.5642-5.49445-.32337-14.99654-4.56184-17.09104-10.27895-2.15539-6.43564 5.63861-.40965 6.98016,3.63641 3.67226,3.8715 10.01206-1.80536 14.4812.39367 4.73401,1.57453 7.21428-4.82946 13.27367-3.85091 0,0-2.65165,1.76782-5.83363,3.53558z" fill="#a05a2c"/>
<path d="m172.24511,693.4336c4.70973-.48901 7.05184-.40832 11.69898-1.472 .98724-2.5342 5.66402-4.33899 7.73802-1.83289 2.02004,3.02585-11.11093,8.48297-13.93522,8.95396-4.72564.79369-8.0445-2.26107-12.80311-2.99421-2.11658-.0258-3.72895-3.61869-2.30484-5.58184 .34733-.77922 9.09276,3.60825 9.60617,2.92698z" fill="#a05a2c"/>
<path d="m308.44194,589.52611c.004-2.06239-.26812-3.28121 3.24432-5.51425 2.27729-2.49422 2.75246-2.62122 3.52164-5.95287 .36259-2.29524.79488-2.2649.85271-4.97883 1.08871,1.89869.32222,4.1532-.91378,7.11627-1.43528,2.93899-1.02764,3.9473-3.9461,5.76665-2.90365,1.81011-.21822,4.88294-4.07438,10.36596 1.41977-3.60965 1.31221-5.23943 1.31559-6.80293z" fill="#a05a2c"/>
<path d="m125.50978,569.48293c-2.58564.53741-5.88084.45768-7.99044-.83471-2.00499-1.29409-2.05152,1.39108-3.81028-.21169-1.32745-1.1385-1.49288-2.88836-2.95695-3.84934-.2895-.25238-5.46068-.9296-6.70572-2.12277-1.43371-1.37397-2.27004-3.28558-2.27004-3.28558 1.79119,3.06373 6.98158,4.5546 9.47703,4.30443 1.7485-.17529 2.23356,2.35828 3.25221,3.25903 .90348.55618 2.26464-1.42472 7.26225,1.76051 2.26315,1.44241 6.44459-.68089 7.21228-.58211 .34702.0891.28173.75526-3.47034,1.56223z" fill="#a05a2c"/>
<path d="m230.21593,527.77939c-1.15421,4.90541-6.22702,15.7-20.86441,21.80548 18.32759-2.76951 18.97297-12.45234 20.60976-14.72067 3.18397-4.4125 6.34215-9.02419 6.45864-11.80683 .96194-22.9774-1.61259-20.12313-6.20399,4.72202z" fill="#4d4d4d"/>
<path d="m204.91768,552.59139c.84777,3.14013 1.94516,4.33332 4.56687,12.24061-.0233-2.43178-.18814-4.82726-.18844-7.25392l.0625-8c-6.55725.73055-11.2999-3.25974-15.34723-5.031 0,0 2.86801,4.79864 10.9063,8.04431z" fill="#4d4d4d"/>
<path d="m307.60849,585.53061c.26273-1.27027.78638-.46834 3.60274-8.74008-.40322,2.70532-.48124,5.87386-2.75556,9.29896-1.89275,2.85047-.3377,5.77901-4.19386,11.26203 1.41977-3.60965 3.02999-10.28981 3.34668-11.82091z" fill="#a05a2c"/>
</g>
<g transform="matrix(.66667,0,0,.66667,301.44231,60.31831)">
<path d="m-249.19192-90.47431c25.4584.33297 39.75673,15.26912 48.0093,28.35642s3.24599,27.41613 5.12651,43.2873c1.36216-3.59506 4.00192-6.43055 7.51552-.85444s.75261,18.21422-2.78989,25.33288-9.55767,7.12541-9.7908,19.83035c-.15768,8.59699-6.46859,11.55448-6.33448,23.62935 .12986,11.69463-3.82324,20.40834 5.39203,27.17011s34.0799,23.97195 44.78785,27.18831c32.97661,9.90529 49.82912,5.79126 71.70248,33.41162 8.7583,11.33655 15.24915,23.04952 17.97796,37.79385s-2.63391,27.26966-1.62157,46.5144 8.01386,39.5102 9.38988,57.40246-5.60829,43.45164-4.77797,62.7599 9.64823,34.45681 10.20964,60.30675-1.6606,44.83339-1.26403,60.96299c.39196,15.94297-1.72168,25.20468-.04335,39.78527s.5049,27.30575 3.53933,39.90981c-.04281,3.97146-1.57343,13.75538-2.3536,27.09071-.59779,10.21796.61135,17.65694-1.89584,25.88657-2.95352,9.69474-3.67467,9.16476-7.77872,14.30308-2.63001,3.29283-4.25524,11.45717-8.09098,15.54165-4.10024,4.36609-10.37808,4.55657-11.91422,4.78178-8.45143,1.23906 5.55872-44.71552 4.82895-50.41627-.75718-5.91489-.93365-10.63915-13.60725-21.64225-6.11601-5.30983-13.1915,21.69465-19.61753,28.90478-4.271,4.79215-6.59409,6.8337-11.63079,5.94989-5.80077-1.01788 9.16786-37.69423 14.17687-51.25059 5.84948-15.83104 13.01731-27.05462 14.0721-43.39739s-7.95105-22.90259-11.13413-39.01513-5.17998-16.2784-9.79079-50.81612 3.69779-42.1791.46226-65.75235-21.50798-58.20428-21.17777-88.99129c-1.50079,16.93349-1.82988,37.13729-4.06292,52.84399s-8.85864,22.29338-8.63144,37.68754 3.18614,32.80312 2.58942,50.83437c-.39225,11.85272 18.51376,45.67419 18.98922,108.68038 .2184,28.94151 3.32811,72.42257 1.72629,104.29809s-9.2984,63.54484-12.08405,85.01611-9.26381,68.30117-9.4946,83.26319c-.52188,33.83397 7.6468,43.41883 6.90517,78.41787-.12516,39.75199-16.38597,84.66703-22.4418,117.70398-3.08001,18.04105.77325,22.17161 1.72628,32.77609s-3.73459,16.4037-3.45257,23.9454 1.85824,19.2598 1.72629,28.7191c2.63255,22.2905 32.92029,37.0061 19.85234,45.3551-16.51269,9.6674-73.75167,7.8355-88.04088-.8764-18.70587-11.4048.0894-18.4976 3.45259-30.6318s6.52401-20.3789 6.90518-29.8105-4.11612-22.7363-3.45261-33.0738 2.73186-17.32636 3.45259-40.93427-8.85556-86.12374-8.63146-115.2786 2.77242-46.22788 2.58946-71.92992-3.36546-35.03346-7.76833-61.3518-6.93626-53.16606-9.4946-78.88091-1.96908-68.94665-5.17888-108.6804c-1.48348,29.50618 1.48161,85.1152-.86314,107.80394s-1.86483,38.85174-6.04203,60.47536-10.15093,49.41897-9.4946,67.48701 5.74716,27.14304 9.49462,45.76304 4.19909,29.92511 2.58941,51.22024-8.29827,58.55918-10.35773,79.21165-3.38607,40.31089-.86316,57.47666 5.70048,22.7899 6.90517,32.8952 4.95225,19.9604.86315,27.2235-11.5079,2.5395-19.85235,6.8059 .32637,16.8165-29.34695,20.4177c-14.648,1.7777-48.65613,7.2015-63.00965-6.9437-17.91146-17.6516 39.55272-42.0256 47.47302-69.5004s1.63087-34.13546-2.58943-61.87584-14.40822-67.04378-17.10327-97.17073 3.18476-59.07887.7035-87.27614-6.97628-59.10478-12.08405-91.15128-13.19408-70.21157-12.94719-106.92747c.0907-13.48324 4.3697-43.2215 6.29159-69.48587 3.56194-48.67774 26.05629-88.0658 27.17962-101.42589 1.46595-17.43485-.35562-43.09646 1.06724-54.93759 1.44142-11.99559-5.59428-20.86496-6.85643-31.28152-3.30608-27.28508-.70561-29.9606-4.62989-57.68495 .85339,37.44003-17.68168,63.77038-19.59954,76.42018-2.72021,17.94182 2.46145,53.29467-4.31575,76.25152-6.5344,34.41124-20.49247,54.63347-21.91778,90.48754-.22054,13.37111 13.97162,35.05578 12.48452,41.99766-2.88905,13.48645.98725,23.21263-1.16919,26.71521-1.75038,2.84304-10.54863,4.10932-13.77338,14.09349-3.30877,10.24431-6.70927,3.54327-15.62918,4.91735-7.12064,1.09691-5.698-1.86954-13.72528-2.94362-8.22644-1.10076-6.69437-5.26496-12.1415-8.15395-4.04584-2.14577-18.08572-3.56836-18.29764-22.47831-.093-8.29903-1.57061-14.41879 6.15784-29.50401 8.74712-17.07361 14.652-50.66983 14.13879-79.19669-.41638-23.14369-1.61418-64.7361 0-94.6571 1.48145-27.46046 8.86627-28.17323 13.81033-51.71082 5.15577-24.54547-7.23952-24.57137 9.79081-93.26724 8.28555-33.42175-4.72672-47.52887 13.0519-72.59535 12.72161-20.77878 36.20513-17.33176 66.61032-27.47082 11.42176-7.63855 35.89154-15.70089 40.01888-24.90379s.67135-16.83903.86314-27.60833c.19029-10.68535-8.67246-17.21774-8.19987-24.54072 .54819-8.49455-5.48057-13.23549-7.76832-18.84379s-5.12768-23.64083-2.58944-28.5911 4.6307.14598 6.97921,4.09441c-1.47058-10.85415-1.93481-36.74017 7.15799-48.68726s25.93539-23.22078 42.77807-23.0005z" fill="#fea"/>
<path d="m-335.49284,401.71215 1.42188-14.42045c80.85583,25.35106 134.70645,8.40973 186.71392-5.01484l1.49082,14.36705c-70.04144,41.03398-133.20086,44.15051-189.62662,5.06824z" fill="#999"/>
<path d="m-250.60215,601.14129c-30.3551,5.5196-99.85751,13.98265-115.97943-10.55055-.72525-10.86053.007-26.26534.68726-39.37106 1.0782-20.75777 2.57187-41.57504 6.08874-62.0526 3.19265-18.58969 8.09313-36.87646 13.57696-54.90643 3.21366-10.56599 11.29788-34.19622 11.29788-34.19622 22.68276,11.7001 92.41975,26.4138 188.77078-4.29793 0,0 10.49604,45.79668 13.72633,62.79102 3.93577,20.70579 6.5297,70.97004 6.89887,93.29873 .13473,8.146-.92513,25.93156-1.07771,41.11536 6.57189,24.48571-116.16326,25.24101-120.68057,8.29342-.21217-6.92729-3.46151-60.15672-3.46151-60.15672s-.78228,10.30617-.72828,22.63356c.0601,13.74093.96266,29.9932 1.08249,37.28313z" fill="#b3b3b3"/>
<path d="m-213.07103,501.11786c-2.08463,8.99634-11.24671,28.79322-37.68352,39.99045 33.10173-5.07918 34.26736-22.83713 37.22359-26.99717 5.75062-8.09236 11.45466-16.55003 11.66505-21.65329 1.73737-42.1397-2.91252-36.90507-11.20512,8.66001z" fill="#4d4d4d"/>
<path d="m-258.76257,546.62215c1.53117,5.75889 3.51318,7.94715 8.24829,22.44883-.0421-4.4598-.33981-8.85302-.34035-13.30342l.11288-14.67171c-11.84314,1.33981-20.40891-5.97824-27.71886-9.22666 0,0 5.17996,8.80052 19.69804,14.75296z" fill="#4d4d4d"/>
<g fill="#a05a2c">
<path d="m-179.22048,129.5643c-4.99145,1.02881-8.09678-.12893-12.74597,2.49905-5.60717,2.47183-8.73029,1.7126-14.74413,2.76796-3.40696.64011-21.35281,8.99894-19.75743,6.37806 1.55291-2.55111 21.36625-10.38888 23.9116-10.86351 10.90422-2.34205 9.10981-.74655 19.91128-3.48241 3.64888-.73055 13.21128-3.08125 16.92982-2.83748 2.4017-1.40267-5.23315,2.40505-6.78297,4.75841-.76417,1.6788-5.77453-.8171-6.7222.77992z" fill="#a05a2c"/>
<path d="m-293.43908,131.31912c-4.21032-1.60989-7.32473-.56963-9.71709-1.70611-2.56433.19434-3.50687,1.22013-5.77414-.3824-2.55608-2.69134-7.82158-2.68707-11.06138-4.71886 3.20695-2.29866 21.77455,1.50098 23.76341,2.40007 7.41071,3.38872 13.85135,3.21521 21.70954,5.02746 3.86154.87291 8.77916,2.1622 12.41688,3.75685 1.85968,1.87307-6.98331,3.51841-7.31336,1.21588-3.81275-.16964-7.24323-2.47341-12.91311-1.78897-6.79007-2.34493-6.36952-3.59373-11.11075-3.80392z" fill="#a05a2c"/>
<path d="m-254.97385,251.49577c-2.05305,5.81934-15.85672,6.83215-22.11433,6.781-15.98314-.13058-23.13248,1.70872-39.09209,1.30668-4.52334-.11389-19.56132,1.12653-27.72652-6.88173 4.88097,6.89712 8.78235,8.06189 14.27183,9.3101 7.226,2.18487 25.72831.34418 33.07378.59692 16.45423.56616 23.1575-.84603 39.6043-1.97098 4.43203-1.40724 5.9015-11.39186 5.6059-16.68235 .97351-4.72268 1.28474-16.27142 1.09824-21.98285-1.15698,11.74196-.89347,18.67383-4.72111,29.52321z" fill="#a05a2c"/>
<path d="m-141.37509,247.74375c-5.65692,5.6006-19.44997,18.37954-23.56588,17.50261-18.02232-.0328-48.19553-.7652-66.17437-2.41005-3.7169-.67212-10.1358-6.15778-14.49568-12.61632 9.41453,5.68708 12.47331,7.97002 15.45927,9.01466 15.70611-.86647 46.26924,1.48028 60.68462,1.72668 7.53796,1.37996 29.68851-17.29261 40.29875-36.7679-.4985,6.46257 2.25264,5.80697-8.44655,29.29666 .005-9.908.60511-10.06814-3.76016-5.74634z" fill="#a05a2c"/>
<path d="m-258.5369,310.17864c-.21341,7.9134 2.97398,15.02894 2.34867,22.93622-.24325,7.41381-3.12427,10.72023-6.11912,13.30093 6.59043,1.1754 6.44166,22.30533 2.7075,20.70573-11.96846,10.46811-35.0993-2.63751-29.25372.68598 2.10835,8.50262 9.07593,6.36057 15.04022,5.43315 5.0803-.56662 5.99096,3.04469 11.01451,1.31389 3.37037-1.2436 8.39209-2.29884 8.05996-5.56729-.80334-7.37279 3.64973-22.86389 7.34972-21.07213-5.28896-6.50391-6.57068-11.71805-5.9647-20.14571 .0739-3.36272 4.84491-17.4002 4.36222-20.73239-1.43644-.66914-2.9358-1.66452-4.45922-1.77762-3.46074,3.04104-6.74371.56094-5.08604,4.91924zm-28.6092,63.16673c-.42242-.0407.20271.20133 0,0z" fill="#a05a2c"/>
<path d="m-267.84542,339.1088c-5.90444,1.50981-10.26895,5.20081-19.71513,1.71378-4.3956-1.62261-3.86816-3.25205-4.2544-5.34215 3.43066-1.24592 4.7214,2.89737 8.29632,2.4026 4.58511-.3395 5.67306-1.69106 10.15203-.72898 1.55618.0684 6.17527-.37293 8.41938-3.3876 1.2964-7.78877 5.14651.13589-2.8982,5.34235z" fill="#a05a2c"/>
<path d="m-247.00506,330.59318c6.84411.4321 10.15846,7.26313 17.0148,7.60735 3.39779.005 11.5619-1.14817 14.95673-1.03703 .59852-.25709 11.84175-3.00922 11.24324-2.75214l-8.30126,5.51144c-5.4933,2.081-18.60431,3.23743-24.44351,3.07494-7.43117-.37653-5.13806-4.40249-7.75485-8.76565-.56946-.33231-3.28461-3.97123-2.71515-3.63891z" fill="#a05a2c"/>
<path d="m-223.00278,371.03408c2.60414.57777 24.23922-10.50753 24.7638-8.12061 .30269,1.6178-13.5503,8.57301-14.21932,10.12456-14.49949,1.96737-10.66872,4.26103-24.90373,1.30448-1.57181-1.03632-5.0236-2.534-6.24009-5.27459s-2.72801-11.70677.28613-9.78791c2.7996,12.10157 15.44622,12.03953 20.31321,11.75407z" fill="#a05a2c"/>
<path d="m-274.43373,307.45315c.41227,5.04971-13.10154,18.76274-19.52137,19.96208-4.31925.80684-10.86868,2.94188-7.96703-.9685l.59884-3.95714c6.31074,8.01304 14.72428-8.11325 18.78301-9.87869 2.80131-1.21854 4.54321-.63421 8.10655-5.15775z" fill="#a05a2c"/>
<path d="m-300.78749,335.56978c1.08193,6.12595.7802,12.27927.37228,13.02851-.82795,1.52067-2.82558,9.81827-3.70155,11.1145-2.49872,3.69749-1.35532,4.81215-4.31773,8.13087-.42057.68722-5.36201,3.56341-4.94144,2.87621l5.10845-9.72606c4.15332-6.33379-.47425-12.26859 5.40406-14.46192 .44607-4.97279-.0322-8.15407 2.07593-10.96211z" fill="#a05a2c"/>
<path d="m-284.60432,45.06317c5.83008,10.88338 8.04942,16.10385 13.35114,19.35163 5.6748,3.47631 9.65369,12.60294 18.56952,16.78458 6.89829,3.52354 19.31358.2951 23.63184-3.66743 3.49806-3.20991 9.74563-8.92441 12.91863-14.82455 3.32965-6.19139 3.55155-12.60287 5.77623-17.22276 1.02224-2.45283-8.85461,7.41671-9.53073,9.595-2.0669,2.2416-3.71924,7.59708-6.65941,8.77337-10.72695,7.49121-27.50818,8.91693-37.9839.6751-8.3803-6.91888-12.74207-11.53537-20.07332-19.46493z" fill="#a05a2c"/>
<path d="m-208.79897,21.78887c-.55493,1.00974-4.26995,4.9559-9.83654,6.17114 6.42553,1.3109 7.16837-2.00685 7.18155,8.55551 1.53332,6.12265 3.55667,1.84823 6.24946-4.28428 .86418-1.96803 1.28231-5.0564 1.72497-7.26869 .64845-5.33278.85702-5.55874 1.61373-7.75506 .776-2.59104-.13907-2.61782 1.197-4.99931-3.75749,2.58666-6.22398,4.17595-6.757,6.63689z" fill="#a05a2c"/>
<path d="m-210.01795-18.0338c-3.72909.56873-11.04832-.04035-14.44723,2.00197-3.13104,2.06425-12.42849,3.47261-16.14502,2.61932-3.62417.29941-3.32562,3.97168-3.4676,7.4617-1.06047,6.30214 3.22182,9.9522 1.79449,16.23413-.5139,1.97021 4.20552,7.32921 5.33179,5.35183 1.23922-1.8117-2.2481-5.42831-2.09769-7.47201-.17537-4.92868-2.23304-7.57124-1.77599-12.52441 .34277-1.96505 4.9006-6.20287 7.04428-6.08329 2.776-.06841 5.7983.72341 8.32012-.86473 2.77239-1.24167 4.53021-3.20953 6.37908-4.14184 3.34544-1.18984 7.96195.35473 9.06377-2.58268z" fill="#a05a2c"/>
<path d="m-288.24677-16.00861c3.74148.40945 14.7532,2.10053 18.54105,2.02943 2.25797-.07372 5.41777.09078 7.62641.73568 1.313.34246 4.39065,1.99378 5.13486,3.36547 .29212,1.50998-6.60211-2.18817-7.65769-1.80816-2.12396-.47459-6.26662-.02953-8.44572.19244-4.53225.46386-7.96824,1.41241-12.19538-.41231 .17682-1.07037-6.44243-3.68808-3.00353-4.10254z" fill="#a05a2c"/>
<path d="m-195.02312-15.29067c-1.18734,1.38059-.99923,2.64263-1.39455,4.33983-.39166,1.65214-.55119,2.43899-1.6979,3.67928-.6506.98588-1.09107,5.35807.0558,5.86604 .88065.26356 1.67815-4.58617 2.14825-5.32047 2.15208-2.34412 2.00307-3.00775 2.31163-6.14884 1.11966-2.26443 1.98255-3.79311 2.58585-5.86305-2.26776-1.82523-3.17145,1.66423-4.00903,3.44721z" fill="#a05a2c"/>
<path d="m-226.70364,94.94285c.68087,4.62111 1.4143,9.64175 1.14502,14.29661 .13113,1.64363 1.3128,4.03891 2.68156,5.19614 1.15808,1.02787 11.81495-.44055 13.35806-.37477 .60845.27855-7.04648,4.11107-7.65491,3.83255l-8.08695,4.49317c-3.48896-.96303-1.43503-2.14548-3.58651-5.21196-2.43354-3.67799-1.23336-5.69515-1.49393-10.10425-.26925-4.65486.92192-13.70383 1.60278-18.32494 0-.67198 2.03488,5.52547 2.03488,6.19746z" fill="#a05a2c"/>
<path d="m-390.89967,559.59944c-5.74589-7.75266.6369-5.13698-1.21333-10.58589 6.33381-5.21838 7.40642-4.46256 4.38775.00051 1.01605,2.2054 1.6874,6.63391 1.81486,9.19071-6.30695.43881-.7395.88826-3.63596,8.63664 0,.65706.65358-3.78255-1.35332-7.24197z" fill="#a05a2c"/>
<path d="m-343.90679,252.70172c-.0264,30.73233-9.02344,48.21077-19.55124,76.11924-.90443-21.94804.70527-25.81878 3.06566-32.56698 6.72118-19.21524.86352-19.4421-2.54292-38.14186-.33736-3.44341-1.80245-63.38631 2.06023-63.45954 1.57597-.15919 5.42128,45.45475 16.96827,58.04914z" fill="#a05a2c"/>
<path d="m-124.19083,284.84864c4.02451,9.98044 12.39489,28.03365 13.25482,38.97311-8.88003-20.23962-8.19261-4.06753-9.45647-21.3493-.75942-10.38454-8.30192-14.41339-9.61588-24.86039 .64413-3.28467-.38967-15.00277 2.19139-24.98865 1.06317,18.57563 2.91366,31.99208 3.62614,32.22523z" fill="#a05a2c"/>
<path d="m-257.70421,850.05014c3.97042,39.33398-7.45589,32.11078-8.99564,71.26738-6.27073-2.03623-7.15865-19.1226-1.43789-31.68529 8.98663-19.73437-.0912-5.21986 3.44955-26.4838 2.26323-20.41426 1.88073-14.90434.0524-35.40064-.0941-5.48978 3.14264,19.39748 6.93165,22.30235z" fill="#a05a2c"/>
<path d="m-216.59476,1088.3044c9.64372-1.1323 13.33128-3.0713 7.78502,5.4232 3.23871,7.9769 12.36579-2.9437 18.89464,1.3566 7.04117,3.5746 2.6284-6.1057 12.72298-3.5888 6.74782,9.7434 7.11968.331 14.3198.09 6.06992-3.5699 9.08943,7.0423 10.55658-1.4539-1.70167-9.6179-7.80905-3.4131-14.13773-1.5928-7.63533.6867-16.11295-6.7079-23.76943-2.2503-8.0571,1.0683-41.62009-8.2027-26.37186,2.0164z" fill="#a05a2c"/>
<path d="m-355.04474,1064.5202c-6.61859-2.1601-11.75898,5.5296-7.5052,11.0667 5.12359-10.0095 15.90069-3.97 19.23805-2.0905 5.69282,2.7515 8.34606-1.9916 13.80556,1.556 4.34214-5.0391 9.66648-8.956 14.41174-2.0056 2.42526,5.3986 2.49906-9.3054 10.73395-13.1689-2.59865-7.4621-4.24298.034-8.4024,5.2012-3.18608,1.8239-9.05552,1.8652-9.33296-2.2552-5.52387-1.3046-9.70483,5.6816-14.018,1.2597-5.54999-5.7161-3.30925,4.1767-8.88816.1051-5.66246,1.5321 3.10491-6.4131-10.04258.3314z" fill="#a05a2c"/>
<path d="m-277.36843,1045.3108c3.79235-.8074 12.54919-3.6637 11.00347-9.2173 1.58806-4.7189 4.89661-.664 3.57298,4.8577-.38689,2.841 1.07556,5.3031-3.55716,5.1347-8.55931-.3111-3.56934,1.4705-11.01929-.7751z" fill="#a05a2c"/>
<path d="m-164.24849,807.44247c-11.84048,6.67947-10.45482,12.68847-21.33087,12.0385-9.92361-.59305-27.08547-8.36625-30.86838-18.85122-3.89288-11.80272 10.18398-.75128 12.60697,6.66904 6.63252,7.10019 18.08293-3.31096 26.15471.72198 8.55017,2.88763 13.02982-8.85705 23.97377-7.06243 0,0-4.78918,3.24212-10.5362,6.48413z" fill="#a05a2c"/>
<path d="m-317.77299,804.92156c8.50631-.89683 12.73643-.74885 21.1297-2.6996 1.78307-4.64763 10.22987-7.95755 13.97575-3.36145 3.64843,5.5493-20.06761,15.55745-25.1686,16.42123-8.53505,1.4556-14.52929-4.14672-23.12389-5.49127-3.82279-.0473-6.73491-6.63654-4.16281-10.23689 .62732-1.42906 16.42257,6.6174 17.34985,5.36798z" fill="#a05a2c"/>
<path d="m-71.78587,614.35906c.0072-3.78234-.48426-6.01761 5.85961-10.11293 4.11305-4.5743 4.97126-4.80722 6.36049-10.91734 .65488-4.20939 1.43564-4.15374 1.54009-9.13099 1.96633,3.48213.58197,7.61681-1.65039,13.05098-2.59228,5.38999-1.85604,7.2392-7.12711,10.57582-5.24432,3.31967-.39413,8.95513-7.3588,19.01079 2.56427-6.61997 2.37-9.60893 2.37611-12.47633z" fill="#a05a2c"/>
<path d="m-402.18237,577.60061c-4.66996.98559-10.62147.83937-14.43165-1.53082-3.62124-2.37332-3.70528,2.55118-6.8818-.38824-2.39753-2.08796-2.69632-5.29714-5.34059-7.05954-.52287-.46286-9.86262-1.70486-12.1113-3.89308-2.58945-2.51982-4.09996-6.02564-4.09996-6.02564 3.2351,5.61877 12.60954,8.35297 17.11661,7.89417 3.15799-.32148 4.03406,4.325 5.87386,5.97694 1.63179,1.02001 4.0902-2.61289 13.11646,3.22871 4.08751,2.64533 11.63967-1.24873 13.02621-1.06757 .62675.16341.50883,1.38512-6.26784,2.86507z" fill="#a05a2c"/>
<path d="m-73.29117,607.03146c.47452-2.32962 1.42029-.85891 6.50696-16.02898-.72826,4.96146-.86918,10.77244-4.97686,17.05395-3.41852,5.22766-.60993,10.59849-7.57459,20.65415 2.56427-6.61997 5.47251-18.87114 6.04449-21.67912z" fill="#a05a2c"/>
</g>
</g>
<g transform="matrix(.66667,0,0,.66667,354.77565,60.31831)">
<path d="m770.80808-90.47431c25.4584.33297 39.75673,15.26912 48.0093,28.35642s3.24599,27.41613 5.12651,43.2873c1.36216-3.59506 4.00192-6.43055 7.51552-.85444s.75261,18.21422-2.78989,25.33288-9.55767,7.12541-9.7908,19.83035c-.15768,8.59699-6.46859,11.55448-6.33448,23.62935 .12986,11.69463-3.82324,20.40834 5.39203,27.17011s34.0799,23.97195 44.78785,27.18831c32.97661,9.90529 49.82912,5.79126 71.70248,33.41162 8.7583,11.33655 15.24915,23.04952 17.97795,37.79385s-2.63391,27.26966-1.62156,46.5144 8.01386,39.5102 9.38988,57.40246-5.60829,43.45164-4.77797,62.7599 9.64823,34.45681 10.20965,60.30675-1.6606,44.83339-1.26403,60.96299c.39196,15.94297-1.72168,25.20468-.0433,39.78527s.5049,27.30575 3.53934,39.90981c-.0428,3.97146-1.57344,13.75538-2.35361,27.09071-.59778,10.21796.61136,17.65694-1.89584,25.88657-2.95352,9.69474-3.67467,9.16476-7.77872,14.30308-2.63001,3.29283-4.25524,11.45717-8.09098,15.54165-4.10024,4.36609-10.37808,4.55657-11.91422,4.78178-8.45142,1.23906 5.55872-44.71552 4.82896-50.41627-.75718-5.91489-.93365-10.63915-13.60725-21.64225-6.11601-5.30983-13.1915,21.69465-19.61753,28.90478-4.271,4.79215-6.59409,6.8337-11.63079,5.94989-5.80077-1.01788 9.16786-37.69423 14.17687-51.25059 5.84948-15.83104 13.01732-27.05462 14.07211-43.39739s-7.95106-22.90259-11.13414-39.01513-5.17998-16.2784-9.79079-50.81612 3.69779-42.1791.46226-65.75235-21.50798-58.20428-21.17777-88.99129c-1.50079,16.93349-1.82988,37.13729-4.06292,52.84399s-8.85864,22.29338-8.63144,37.68754 3.18614,32.80312 2.58942,50.83437c-.39225,11.85272 18.51376,45.67419 18.98922,108.68038 .2184,28.94151 3.32811,72.42257 1.72629,104.29809s-9.2984,63.54484-12.08405,85.01611-9.26381,68.30117-9.4946,83.26319c-.52188,33.83397 7.6468,43.41883 6.90517,78.41787-.12516,39.75199-16.38597,84.66703-22.4418,117.70398-3.08001,18.04105.77325,22.17161 1.72628,32.77609s-3.73459,16.4037-3.45257,23.9454 1.85824,19.2598 1.72629,28.7191c2.63255,22.2905 32.92029,37.0061 19.85234,45.3551-16.51269,9.6674-73.75167,7.8355-88.04088-.8764-18.70587-11.4048.0894-18.4976 3.45259-30.6318s6.52401-20.3789 6.90518-29.8105-4.11612-22.7363-3.45261-33.0738 2.73186-17.32636 3.45259-40.93427-8.85556-86.12374-8.63146-115.2786 2.77242-46.22788 2.58946-71.92992-3.36546-35.03346-7.76833-61.3518-6.93626-53.16606-9.4946-78.88091-1.96908-68.94665-5.17888-108.6804c-1.48348,29.50618 1.48161,85.1152-.86314,107.80394s-1.86483,38.85174-6.04203,60.47536-10.15093,49.41897-9.4946,67.48701 5.74716,27.14304 9.49462,45.76304 4.19909,29.92511 2.58941,51.22024-8.29827,58.55918-10.35773,79.21165-3.38607,40.31089-.86316,57.47666 5.70048,22.7899 6.90517,32.8952 4.95225,19.9604.86315,27.2235-11.5079,2.5395-19.85235,6.8059 .32637,16.8165-29.34695,20.4177c-14.648,1.7777-48.65613,7.2015-63.00965-6.9437-17.91146-17.6516 39.55272-42.0256 47.47302-69.5004s1.63087-34.13546-2.58943-61.87584-14.40822-67.04378-17.10327-97.17073 3.18476-59.07887.7035-87.27614-6.97628-59.10478-12.08405-91.15128-13.19408-70.21157-12.94719-106.92747c.0907-13.48324 4.3697-43.2215 6.29159-69.48587 3.56194-48.67774 26.05629-88.0658 27.17962-101.42589 1.46595-17.43485-.35562-43.09646 1.06724-54.93759 1.44142-11.99559-5.59428-20.86496-6.85643-31.28152-3.30608-27.28508-.70561-29.9606-4.62989-57.68495 .85339,37.44003-17.68168,63.77038-19.59954,76.42018-2.72021,17.94182 2.46145,53.29467-4.31575,76.25152-6.5344,34.41124-20.49247,54.63347-21.91778,90.48754-.22054,13.37111 13.97162,35.05578 12.48452,41.99766-2.88905,13.48645.98725,23.21263-1.16919,26.71521-1.75038,2.84304-10.54863,4.10932-13.77338,14.09349-3.30877,10.24431-6.70927,3.54327-15.62918,4.91735-7.12064,1.09691-5.698-1.86954-13.72528-2.94362-8.22644-1.10076-6.69437-5.26496-12.1415-8.15395-4.04584-2.14577-18.08572-3.56836-18.29764-22.47831-.093-8.29903-1.57061-14.41879 6.15784-29.50401 8.74712-17.07361 14.652-50.66983 14.13879-79.19669-.41638-23.14369-1.61418-64.7361 0-94.6571 1.48145-27.46046 8.86627-28.17323 13.81033-51.71082 5.15577-24.54547-7.23952-24.57137 9.79081-93.26724 8.28555-33.42175-4.72672-47.52887 13.0519-72.59535 12.72161-20.77878 36.20513-17.33176 66.61032-27.47082 11.42176-7.63855 35.89154-15.70089 40.01888-24.90379s.67135-16.83903.86314-27.60833c.19029-10.68535-8.67246-17.21774-8.19987-24.54072 .54819-8.49455-5.48057-13.23549-7.76832-18.84379s-5.12768-23.64083-2.58944-28.5911 4.6307.14598 6.97921,4.09441c-1.47058-10.85415-1.93481-36.74017 7.15799-48.68726s25.93539-23.22078 42.77807-23.0005z" fill="#502d16"/>
<path d="m684.50716,401.71215 1.42188-14.42045c80.85583,25.35106 134.70645,8.40973 186.71392-5.01484l1.49082,14.36705c-70.04144,41.03398-133.20086,44.15051-189.62662,5.06824z" fill="#999"/>
<path d="m769.39785,601.14129c-30.3551,5.5196-99.85751,13.98265-115.97943-10.55055-.72525-10.86053.007-26.26534.68726-39.37106 1.0782-20.75777 2.57187-41.57504 6.08874-62.0526 3.19265-18.58969 8.09313-36.87646 13.57696-54.90643 3.21366-10.56599 11.29788-34.19622 11.29788-34.19622 22.68276,11.7001 92.41975,26.4138 188.77078-4.29793 0,0 10.49604,45.79668 13.72633,62.79102 3.93577,20.70579 6.5297,70.97004 6.89887,93.29873 .13473,8.146-.92513,25.93156-1.07771,41.11536 6.57189,24.48571-116.16326,25.24101-120.68057,8.29342-.21217-6.92729-3.46151-60.15672-3.46151-60.15672s-.78228,10.30617-.72828,22.63356c.0601,13.74093.96266,29.9932 1.08249,37.28313z" fill="#b3b3b3"/>
<path d="m840.77952,129.5643c-4.99145,1.02881-8.09678-.12893-12.74597,2.49905-5.60717,2.47183-8.73029,1.7126-14.74413,2.76796-3.40696.64011-21.35281,8.99894-19.75743,6.37806 1.55291-2.55111 21.36625-10.38888 23.9116-10.86351 10.90422-2.34205 9.10981-.74655 19.91128-3.48241 3.64888-.73055 13.21128-3.08125 16.92982-2.83748 2.4017-1.40267-5.23315,2.40505-6.78297,4.75841-.76417,1.6788-5.77453-.8171-6.7222.77992z" fill="#2b1100"/>
<path d="m726.56092,131.31912c-4.21032-1.60989-7.32473-.56963-9.71709-1.70611-2.56433.19434-3.50687,1.22013-5.77414-.3824-2.55608-2.69134-7.82158-2.68707-11.06138-4.71886 3.20695-2.29866 21.77455,1.50098 23.76341,2.40007 7.41071,3.38872 13.85135,3.21521 21.70954,5.02746 3.86154.87291 8.77916,2.1622 12.41688,3.75685 1.85968,1.87307-6.98331,3.51841-7.31336,1.21588-3.81275-.16964-7.24323-2.47341-12.91311-1.78897-6.79007-2.34493-6.36952-3.59373-11.11075-3.80392z" fill="#2b1100"/>
<path d="m765.02615,251.49577c-2.05305,5.81934-15.85672,6.83215-22.11433,6.781-15.98314-.13058-23.13248,1.70872-39.09209,1.30668-4.52334-.11389-19.56132,1.12653-27.72652-6.88173 4.88097,6.89712 8.78235,8.06189 14.27183,9.3101 7.226,2.18487 25.72831.34418 33.07378.59692 16.45423.56616 23.1575-.84603 39.6043-1.97098 4.43203-1.40724 5.9015-11.39186 5.6059-16.68235 .97351-4.72268 1.28474-16.27142 1.09824-21.98285-1.15698,11.74196-.89347,18.67383-4.72111,29.52321z" fill="#2b1100"/>
<path d="m878.62491,247.74375c-5.65692,5.6006-19.44997,18.37954-23.56588,17.50261-18.02232-.0328-48.19553-.7652-66.17437-2.41005-3.7169-.67212-10.1358-6.15778-14.49568-12.61632 9.41453,5.68708 12.47331,7.97002 15.45927,9.01466 15.70611-.86647 46.26924,1.48028 60.68462,1.72668 7.53796,1.37996 29.68851-17.29261 40.29875-36.7679-.4985,6.46257 2.25264,5.80697-8.44655,29.29666 .005-9.908.60511-10.06814-3.76016-5.74634z" fill="#2b1100"/>
<path d="m761.4631,310.17864c-.21341,7.9134 2.97398,15.02894 2.34867,22.93622-.24325,7.41381-3.12427,10.72023-6.11912,13.30093 6.59043,1.1754 6.44166,22.30533 2.7075,20.70573-11.96846,10.46811-35.0993-2.63751-29.25372.68598 2.10835,8.50262 9.07593,6.36057 15.04022,5.43315 5.0803-.56662 5.99096,3.04469 11.01451,1.31389 3.37037-1.2436 8.39209-2.29884 8.05996-5.56729-.80334-7.37279 3.64973-22.86389 7.34972-21.07213-5.28896-6.50391-6.57068-11.71805-5.9647-20.14571 .0739-3.36272 4.84491-17.4002 4.36222-20.73239-1.43644-.66914-2.9358-1.66452-4.45922-1.77762-3.46074,3.04104-6.74371.56094-5.08604,4.91924zm-28.6092,63.16673c-.42242-.0407.20271.20133 0,0z" fill="#2b1100"/>
<path d="m752.15458,339.1088c-5.90444,1.50981-10.26895,5.20081-19.71513,1.71378-4.3956-1.62261-3.86816-3.25205-4.2544-5.34215 3.43066-1.24592 4.7214,2.89737 8.29632,2.4026 4.58511-.3395 5.67306-1.69106 10.15203-.72898 1.55618.0684 6.17527-.37293 8.41938-3.3876 1.2964-7.78877 5.14651.13589-2.8982,5.34235z" fill="#2b1100"/>
<path d="m772.99494,330.59318c6.84411.4321 10.15846,7.26313 17.0148,7.60735 3.39779.005 11.5619-1.14817 14.95673-1.03703 .59852-.25709 11.84175-3.00922 11.24324-2.75214l-8.30126,5.51144c-5.4933,2.081-18.60431,3.23743-24.44351,3.07494-7.43117-.37653-5.13806-4.40249-7.75485-8.76565-.56946-.33231-3.28461-3.97123-2.71515-3.63891z" fill="#2b1100"/>
<path d="m796.99722,371.03408c2.60414.57777 24.23922-10.50753 24.7638-8.12061 .30269,1.6178-13.5503,8.57301-14.21932,10.12456-14.49949,1.96737-10.66872,4.26103-24.90373,1.30448-1.57181-1.03632-5.0236-2.534-6.24009-5.27459s-2.72801-11.70677.28613-9.78791c2.7996,12.10157 15.44622,12.03953 20.31321,11.75407z" fill="#2b1100"/>
<path d="m745.56627,307.45315c.41227,5.04971-13.10154,18.76274-19.52137,19.96208-4.31925.80684-10.86868,2.94188-7.96703-.9685l.59884-3.95714c6.31074,8.01304 14.72428-8.11325 18.78301-9.87869 2.80131-1.21854 4.54321-.63421 8.10655-5.15775z" fill="#2b1100"/>
<path d="m719.21251,335.56978c1.08193,6.12595.7802,12.27927.37228,13.02851-.82795,1.52067-2.82558,9.81827-3.70155,11.1145-2.49872,3.69749-1.35532,4.81215-4.31773,8.13087-.42057.68722-5.36201,3.56341-4.94144,2.87621l5.10845-9.72606c4.15332-6.33379-.47425-12.26859 5.40406-14.46192 .44607-4.97279-.0322-8.15407 2.07593-10.96211z" fill="#2b1100"/>
<path d="m735.39568,45.06317c5.83008,10.88338 8.04942,16.10385 13.35114,19.35163 5.6748,3.47631 9.65369,12.60294 18.56952,16.78458 6.89829,3.52354 19.31358.2951 23.63184-3.66743 3.49806-3.20991 9.74563-8.92441 12.91863-14.82455 3.32965-6.19139 3.55155-12.60287 5.77623-17.22276 1.02224-2.45283-8.85461,7.41671-9.53073,9.595-2.0669,2.2416-3.71924,7.59708-6.65941,8.77337-10.72695,7.49121-27.50818,8.91693-37.9839.6751-8.3803-6.91888-12.74207-11.53537-20.07332-19.46493z" fill="#2b1100"/>
<path d="m811.20103,21.78887c-.55493,1.00974-4.26995,4.9559-9.83654,6.17114 6.42553,1.3109 7.16837-2.00685 7.18155,8.55551 1.53332,6.12265 3.55667,1.84823 6.24946-4.28428 .86418-1.96803 1.28231-5.0564 1.72497-7.26869 .64845-5.33278.85702-5.55874 1.61373-7.75506 .776-2.59104-.13907-2.61782 1.197-4.99931-3.75749,2.58666-6.22398,4.17595-6.757,6.63689z" fill="#2b1100"/>
<path d="m809.98205-18.0338c-3.72909.56873-11.04832-.04035-14.44723,2.00197-3.13104,2.06425-12.42849,3.47261-16.14502,2.61932-3.62417.29941-3.32562,3.97168-3.4676,7.4617-1.06047,6.30214 3.22182,9.9522 1.79449,16.23413-.5139,1.97021 4.20552,7.32921 5.33179,5.35183 1.23922-1.8117-2.2481-5.42831-2.09769-7.47201-.17537-4.92868-2.23304-7.57124-1.77599-12.52441 .34277-1.96505 4.9006-6.20287 7.04428-6.08329 2.776-.06841 5.7983.72341 8.32012-.86473 2.77239-1.24167 4.53021-3.20953 6.37908-4.14184 3.34544-1.18984 7.96195.35473 9.06377-2.58268z" fill="#2b1100"/>
<path d="m731.75323-16.00861c3.74148.40945 14.7532,2.10053 18.54105,2.02943 2.25797-.07372 5.41777.09078 7.62641.73568 1.313.34246 4.39065,1.99378 5.13486,3.36547 .29212,1.50998-6.60211-2.18817-7.65769-1.80816-2.12396-.47459-6.26662-.02953-8.44572.19244-4.53225.46386-7.96824,1.41241-12.19538-.41231 .17682-1.07037-6.44243-3.68808-3.00353-4.10254z" fill="#2b1100"/>
<path d="m824.97688-15.29067c-1.18734,1.38059-.99923,2.64263-1.39455,4.33983-.39166,1.65214-.55119,2.43899-1.6979,3.67928-.6506.98588-1.09107,5.35807.0558,5.86604 .88065.26356 1.67815-4.58617 2.14825-5.32047 2.15208-2.34412 2.00307-3.00775 2.31163-6.14884 1.11966-2.26443 1.98255-3.79311 2.58585-5.86305-2.26776-1.82523-3.17145,1.66423-4.00903,3.44721z" fill="#2b1100"/>
<path d="m793.29636,94.94285c.68087,4.62111 1.4143,9.64175 1.14502,14.29661 .13113,1.64363 1.3128,4.03891 2.68156,5.19614 1.15808,1.02787 11.81495-.44055 13.35806-.37477 .60845.27855-7.04648,4.11107-7.65491,3.83255l-8.08695,4.49317c-3.48896-.96303-1.43503-2.14548-3.58651-5.21196-2.43354-3.67799-1.23336-5.69515-1.49393-10.10425-.26925-4.65486.92192-13.70383 1.60278-18.32494 0-.67198 2.03488,5.52547 2.03488,6.19746z" fill="#2b1100"/>
<path d="m629.10033,559.59944c-5.74589-7.75266.6369-5.13698-1.21333-10.58589 6.33381-5.21838 7.40642-4.46256 4.38775.00051 1.01605,2.2054 1.6874,6.63391 1.81486,9.19071-6.30695.43881-.7395.88826-3.63596,8.63664 0,.65706.65358-3.78255-1.35332-7.24197z" fill="#2b1100"/>
<path d="m676.09321,252.70172c-.0264,30.73233-9.02344,48.21077-19.55124,76.11924-.90443-21.94804.70527-25.81878 3.06566-32.56698 6.72118-19.21524.86352-19.4421-2.54292-38.14186-.33736-3.44341-1.80245-63.38631 2.06023-63.45954 1.57597-.15919 5.42128,45.45475 16.96827,58.04914z" fill="#2b1100"/>
<path d="m895.80917,284.84864c4.02451,9.98044 12.39489,28.03365 13.25482,38.97311-8.88003-20.23962-8.19261-4.06753-9.45647-21.3493-.75942-10.38454-8.30192-14.41339-9.61588-24.86039 .64413-3.28467-.38967-15.00277 2.19139-24.98865 1.06317,18.57563 2.91366,31.99208 3.62614,32.22523z" fill="#2b1100"/>
<path d="m762.29579,850.05014c3.97042,39.33398-7.45589,32.11078-8.99564,71.26738-6.27073-2.03623-7.15865-19.1226-1.43789-31.68529 8.98663-19.73437-.0912-5.21986 3.44955-26.4838 2.26323-20.41426 1.88073-14.90434.0524-35.40064-.0941-5.48978 3.14264,19.39748 6.93165,22.30235z" fill="#2b1100"/>
<path d="m803.40524,1088.3044c9.64372-1.1323 13.33128-3.0713 7.78502,5.4232 3.23871,7.9769 12.36579-2.9437 18.89464,1.3566 7.04117,3.5746 2.6284-6.1057 12.72298-3.5888 6.74782,9.7434 7.11968.331 14.3198.09 6.06992-3.5699 9.08943,7.0423 10.55658-1.4539-1.70167-9.6179-7.80905-3.4131-14.13773-1.5928-7.63533.6867-16.11295-6.7079-23.76943-2.2503-8.0571,1.0683-41.62009-8.2027-26.37186,2.0164z" fill="#2b1100"/>
<path d="m664.95526,1064.5202c-6.61859-2.1601-11.75898,5.5296-7.5052,11.0667 5.12359-10.0095 15.90069-3.97 19.23805-2.0905 5.69282,2.7515 8.34606-1.9916 13.80556,1.556 4.34214-5.0391 9.66648-8.956 14.41174-2.0056 2.42526,5.3986 2.49906-9.3054 10.73395-13.1689-2.59865-7.4621-4.24298.034-8.4024,5.2012-3.18608,1.8239-9.05552,1.8652-9.33296-2.2552-5.52387-1.3046-9.70483,5.6816-14.018,1.2597-5.54999-5.7161-3.30925,4.1767-8.88816.1051-5.66246,1.5321 3.10491-6.4131-10.04258.3314z" fill="#2b1100"/>
<path d="m742.63157,1045.3108c3.79235-.8074 12.54919-3.6637 11.00347-9.2173 1.58806-4.7189 4.89661-.664 3.57298,4.8577-.38689,2.841 1.07556,5.3031-3.55716,5.1347-8.55931-.3111-3.56934,1.4705-11.01929-.7751z" fill="#2b1100"/>
<path d="m855.75151,807.44247c-11.84048,6.67947-10.45482,12.68847-21.33087,12.0385-9.92361-.59305-27.08547-8.36625-30.86838-18.85122-3.89288-11.80272 10.18398-.75128 12.60697,6.66904 6.63252,7.10019 18.08293-3.31096 26.15471.72198 8.55017,2.88763 13.02982-8.85705 23.97377-7.06243 0,0-4.78918,3.24212-10.5362,6.48413z" fill="#2b1100"/>
<path d="m702.22701,804.92156c8.50631-.89683 12.73643-.74885 21.1297-2.6996 1.78307-4.64763 10.22987-7.95755 13.97575-3.36145 3.64843,5.5493-20.06761,15.55745-25.1686,16.42123-8.53505,1.4556-14.52929-4.14672-23.12389-5.49127-3.82279-.0473-6.73491-6.63654-4.16281-10.23689 .62732-1.42906 16.42257,6.6174 17.34985,5.36798z" fill="#2b1100"/>
<path d="m948.21413,614.35906c.007-3.78234-.48425-6.01761 5.85962-10.11293 4.11305-4.5743 4.97126-4.80722 6.36048-10.91734 .65488-4.20939 1.43565-4.15374 1.5401-9.13099 1.96633,3.48213.58196,7.61681-1.65039,13.05098-2.59229,5.38999-1.85604,7.2392-7.12711,10.57582-5.24433,3.31967-.39414,8.95513-7.3588,19.01079 2.56426-6.61997 2.37-9.60893 2.3761-12.47633z" fill="#2b1100"/>
<path d="m617.81763,577.60061c-4.66996.98559-10.62147.83937-14.43165-1.53082-3.62124-2.37332-3.70528,2.55118-6.8818-.38824-2.39753-2.08796-2.69632-5.29714-5.34059-7.05954-.52287-.46286-9.86262-1.70486-12.1113-3.89308-2.58945-2.51982-4.09996-6.02564-4.09996-6.02564 3.2351,5.61877 12.60954,8.35297 17.11661,7.89417 3.15799-.32148 4.03406,4.325 5.87386,5.97694 1.63179,1.02001 4.0902-2.61289 13.11646,3.22871 4.08751,2.64533 11.63967-1.24873 13.02621-1.06757 .62675.16341.50883,1.38512-6.26784,2.86507z" fill="#2b1100"/>
<path d="m806.92897,501.11786c-2.08463,8.99634-11.24671,28.79322-37.68352,39.99045 33.10173-5.07918 34.26736-22.83713 37.22359-26.99717 5.75062-8.09236 11.45466-16.55003 11.66505-21.65329 1.73737-42.1397-2.91252-36.90507-11.20512,8.66001z" fill="#4d4d4d"/>
<path d="m761.23743,546.62215c1.53117,5.75889 3.51318,7.94715 8.24829,22.44883-.0421-4.4598-.33981-8.85302-.34035-13.30342l.11288-14.67171c-11.84314,1.33981-20.40891-5.97824-27.71886-9.22666 0,0 5.17996,8.80052 19.69804,14.75296z" fill="#4d4d4d"/>
<path d="m946.70883,607.03146c.47452-2.32962 1.42029-.85891 6.50696-16.02898-.72826,4.96146-.86918,10.77244-4.97686,17.05395-3.41852,5.22766-.60992,10.59849-7.57459,20.65415 2.56427-6.61997 5.47251-18.87114 6.04449-21.67912z" fill="#2b1100"/>
</g>
</svg>
