<?xml version="1.0" encoding="UTF-8" standalone="no"?>
<svg id="svg2" xmlns:rdf="http://www.w3.org/1999/02/22-rdf-syntax-ns#" xmlns="http://www.w3.org/2000/svg" height="287.07" width="979.01" version="1.1" xmlns:cc="http://creativecommons.org/ns#" xmlns:dc="http://purl.org/dc/elements/1.1/">
 <path id="path10" d="m405.77 48.596-1.5 0.2v3h-3v2l1 0.2 1 0.3 7.2 2.7q7.3 2.8 16.3 12.8t11 15.5-3 15.5-8.5 16-7.5 13 1.3 19q5.2 12 7.2 12.5t1.2 17.5q-0.7 17-0.4 29 0.2 12 1.2 12t1.5 4-0.7 4.5q-1.3 0.5-1.8 3.5t0.5 4 4 9.5 4 11 0.5 9.5-3.2 11.2q-2.8 4.3-8.3 6.8t-11.5 1.5-10.8-5.7q-4.7-4.8-5.7-7.8t-0.5-9.5 2.8-10.5q2.2-4 6.2-6.2 4-2.3 4.2-2.6l0.3-0.2v-1.5q0-1.5-3-5.5t-3.5-33-2.5-35l-2-6-0.3-0.2-0.2-0.3-0.2-0.3-0.3-0.2-0.5-1-0.5-1-0.3-0.2-0.2-0.3-0.2-0.3-0.3-0.2-0.5-1-0.5-1-0.3-0.2-0.2-0.3h-2l-0.2 0.3-0.3 0.2-0.5 1.5-0.5 1.5-0.5 2-0.5 2 1 16.5q1 16.5 2.3 42.5 1.2 26-0.6 27-1.7 1-2 3.5-0.2 2.5-2.4 4-2.3 1.5-3.8 4.5t-1.8 3.2l-0.2 0.3-1.5 0.5-1.5 0.5h-7l-1-0.5-1-0.5-0.2-0.3-0.3-0.2v-3q0-3 0.5-4.5t2-4.5 0.2-3.8q-1.2-0.7-2-4.4-0.7-3.8-1.2-7.8t2-8 1.5-13.5-2-12-3.5-33.5-5-34.5-14.5-19-12.5-24.5 11.5-19 20.7-13.8l8.8-3.7 1-0.5 1-0.5 0.2-0.3 0.3-0.2v-2l-0.3-0.2-0.2-0.3-2.5-1.3q-2.5-1.2-4.3-5.7-1.7-4.5-2-5.7-0.2-1.3-1.2-1.8t0-0.8q1-0.2 1-4.4 0-4.3 0.8-5 0.7-0.8 0.4-1.8-0.2-1-1.2-1t2-5.8q3-5.7 9.5-8.7t12.3-1.7q5.7 1.2 10.7 5.2t7 10 2.3 7.8q0.2 1.7-0.6 2.4-0.7 0.8 0 3 0.8 2.3 0.8 3.8t-1.5 1.8q-1.5 0.2-2 2.4-0.5 2.3-1.5 2-1-0.2-1.5 1.6-0.5 1.7-2 2zm-50.5 40.2 1-0.5 2.8 0.7q2.7 0.8 4.7 8.3t2.3 13q0.2 5.5-3.3 4.7-3.5-0.7-9.3-7.4-5.7-6.8-6.2-7.8l-0.5-1v-3l0.3-0.2 0.2-0.3 0.2-0.3 0.3-0.2 0.3-0.2 0.2-0.3 0.2-0.3 0.3-0.2 2.7-2.2q2.8-2.3 3.8-2.8z" fill-rule="evenodd" stroke="#141414" stroke-width=".5" fill="#141414"/>
 <path id="path12" d="m771.47 271.6 0.3 0.2v3l-0.3 0.2-0.2 0.3-0.2 0.3-0.3 0.2-0.3 0.2-0.2 0.3h-10l-1-0.5-1-0.5-1.5-0.5-1.5-0.5-1-0.5-1-0.5-1-0.3-1-0.2v-2l4-0.2q4-0.3 4.2-8 0.3-7.8-4.2-26.3l-4.5-18.5-0.3-0.2-0.2-0.3-0.2-0.3-0.3-0.2-0.3-0.2-0.2-0.3-0.2-0.3-0.3-0.2-0.5-2.5-0.5-2.5-0.3-0.2-0.2-0.3-0.2-0.3-0.3-0.2-0.3 0.2-0.2 0.3-0.2 0.3-0.3 0.2v4q0 4 0 10.5t-6.7 10.3q-6.8 3.7-12.3 2.7t-8.3-6.3q-2.7-5.2-3.2-10.7l-0.5-5.5v-2l-0.3-0.2-0.2-0.3-0.2-0.3-0.3-0.2-0.3-0.2-0.2-0.3-1-0.3-1-0.2-0.2 2.5-0.3 2.5-0.3 0.2-0.2 0.3-0.2 0.3-0.3 0.2-3.7 1.8q-3.8 1.7-5.3 2-1.5 0.2-2.3 4.2-0.7 4-0.2 20t2.8 17.8q2.2 1.7 2.4 2l0.3 0.2 0.3 0.2 0.2 0.3 1 0.5 1 0.5 1 0.5 1 0.5 0.2 0.3 0.3 0.2 0.3 0.2 0.2 0.3h-11l-0.2-0.3-0.3-0.2-0.3-0.2-0.2-0.3-1-0.5q-1-0.5-3.2-1.8-2.3-1.2-2.8-23.7t1-25 1.5-5 4.3-10.3q4.2-7.7 7.4-16 3.3-8.2 3.3-11.7t-0.3-7.7q-0.2-4.3-1.4-6.6-1.3-2.2 1.7-4.7t3.5-11.5-2.5-13.5-12.7-14.7q-9.8-10.3-20.3-16.3t-18.3-13.7q-7.7-7.8-13.2-10.8l-5.5-3-0.3-0.2-0.2-0.3-0.2-0.3-0.3-0.2-0.3-0.2-0.2-0.3-0.2-0.3-0.3-0.2-0.3-4-0.2-4 1.5 0.2 1.5 0.3 0.2 0.3 0.3 0.2 0.3 0.2 0.2 0.3 5 1.5q5 1.5 7 0.5t5.5-0.5 9 6 14 10.5 13.5 7.5 11.5 4.5 13.5 1.5 15.8-8.8q8.7-8.2 28.2-27.7t19.8-20.5q0.2-1 5.4-4.5 5.3-3.5 12-10.3 6.8-6.7 10.3-6.7t9.7 8.7q6.3 8.8 6 11.6-0.2 2.7-1.4 2.4-1.3-0.2-2.6-2-1.2-1.7-9 1-7.7 2.8-12.4 7.6-4.8 4.7-8 7-3.3 2.2-6 7-2.8 4.7-12.6 14.4-9.7 9.8-14 17-4.2 7.3-5.4 9-1.3 1.8-4.3 18.8t-0.5 24.5 4.5 19 3 20.5 3.5 16 2 9.5-0.5 12 2 16.5 4.3 20.8q2.2 13.7 2.4 14z" fill-rule="evenodd" stroke="#141414" stroke-width=".5" fill="#141414"/>
 <path id="path14" d="m265.77 235.3v6.5l-0.5 1-0.5 1-0.3 0.2-0.2 0.3-1 0.5-1 0.5h-5l-1-0.5-1-0.5-0.2-0.3-0.3-0.2-0.5-1.5q-0.5-1.5-0.8-7.3-0.2-5.7-4.4-13-4.3-7.2-5.3-23.2t-4.5-30l-3.5-14-0.5-1.5-0.5-1.5-0.5-1-0.5-1-0.3-0.2-0.2-0.3h-2l-0.2 0.3-0.3 0.2-0.5 3.5-0.5 3.5-5 18.5q-5 18.5-4 23.5t1 11.5-1.5 10.5-1.5 11.5-0.5 8.5l-0.5 1-0.3 0.2-0.2 0.3-0.2 0.3-0.3 0.2-0.3 0.2-0.2 0.3-0.2 0.3-0.3 0.2-0.5 1-0.5 1-0.3 0.2-0.2 0.3h-6l-0.2-0.3-0.3-0.2-0.3-0.2-0.2-0.3-0.2-0.3-0.3-0.2-0.5-1.5-0.5-1.5-0.5-6.5q-0.5-6.5-1.5-9t-2-16.5 2-27.5 4-23.5 2-42.5-1-40-7.7-12.7q-5.8-5.3-7.3-8-1.5-2.8-4-4-2.5-1.3-14.5-9.3t-19-8h-9l-1.5-0.5-1.5-0.5-0.2-0.3-0.3-0.2v-6l0.3-0.2 0.2-0.3 0.2-0.3 0.3-0.2 0.3-0.2 0.2-0.3 1-0.5 1-0.5 7.5 1.5q7.5 1.5 20.3 6.2 12.7 4.8 16 7.6 3.2 2.7 6.2 1.7t5-2.3q2-1.2 3.5 2 1.5 3.3 4 3.8l2.5 0.5 1.5 0.3 1.5 0.2-0.2-1-0.3-1-0.5-1-0.5-1-1-6q-1-6 1-10t4.7-6.2q2.8-2.3 10.8-1.8t10.2 2.8q2.3 2.2 3.8 6.7t1 7.5l-0.5 3-0.3 1.5-0.2 1.5 2-0.2 2-0.3 0.2-0.3 0.3-0.2 0.3-0.2 0.2-0.3 0.2-0.3 0.3-0.2 0.3-0.2 0.2-0.3 0.2-0.3 0.3-0.2 0.3-0.2 0.2-0.3 3-2.5q3-2.5 5-2.8 2-0.2 5.5-5 3.5-4.7 19-14.7t16.5-10.3q1-0.2 1-1.2t5-0.2q5 0.7 1.8 2-3.3 1.2-3 2.4 0.2 1.3 4.7 1.6 4.5 0.2 4.5 1.2t-3.8 1.5q-3.7 0.5-2.2 1.5t1.2 1.8q-0.2 0.7-1.7 0.4-1.5-0.2-1.5 0.8t-7 1.2q-7 0.3-20.8 13.6-13.7 13.2-15.2 16.2t-5 7-4.5 6.5-0.5 22.5 2 27.5 3.2 11.7q1.8 4.3 1.8 5.8t-2.5 2.8q-2.5 1.2-0.3 22.2 2.3 21 6.3 43t3.5 28.5-0.5 13z" fill-rule="evenodd" stroke="#141414" stroke-width=".5" fill="#141414"/>
 <path id="path16" d="m975.27 149.8 1 0.5 0.2 0.3 0.3 0.2 0.3 0.2 0.2 0.3 0.2 0.3 0.3 0.2 0.5 1 0.5 1v5l-0.3 0.2-0.2 0.3-0.2 0.3-0.3 0.2-0.3 0.2-0.2 0.3-1.5 0.5-1.5 0.5h-2l-0.2-0.3-0.3-0.2-0.3-0.2-0.2-0.3-0.2-0.3-0.3-0.2-0.3-0.2-0.2-0.3-0.2-0.3-0.3-0.2-0.5-1q-0.5-1-2-3t-17.5-13-25.3-15.2l-9.2-4.3-0.2-0.3-0.3-0.2-0.3 0.2-0.2 0.3-0.2 0.3-0.3 0.2-0.3 0.2-0.2 0.3-0.2 0.3-0.3 0.2-2 5.5q-2 5.5-1.5 10.5t3.8 13.2q3.2 8.3 6.2 10.6 3 2.2 7 8 4 5.7 17 11.2t19.2 6.8q6.3 1.2 6.6 7.7 0.2 6.5 1.4 7 1.3 0.5 1.3 5.5v5l-0.3 0.2-0.2 0.3h-2l-1-0.5-1-0.5-0.2-0.3-0.3-0.2-0.3-0.2-0.2-0.3-0.2-0.3-0.3-0.2-0.3-0.2-0.2-0.3-1.5-0.5q-1.5-0.5-11.5-7t-13-7.5-14-4-20-5-14-1-15.8 13.7q-10.7 12.8-19.4 21.6-8.8 8.7-15 17-6.3 8.2-11.6 10-5.2 1.7-8.7 3.7l-3.5 2-1 0.5-1 0.5-1.5 0.3-1.5 0.2 0.2-3 0.3-3 0.5-1 0.5-1 0.3-0.2 0.2-0.3 0.2-0.3q0.3-0.2-0.2-4.2t0.8-4.8q1.2-0.7 19.2-18.7t23.2-32.7q5.3-14.8 6.3-21.8t-0.7-7.5q-1.8-0.5-1.6-2 0.3-1.5 1.3-18.5t4-26l3-9 0.3-1 0.2-1-3.5-0.2q-3.5-0.3-23-0.8t-21.5 0.5-4 3-2.8 0.7q-0.7-1.2-1.4 0.3l-0.8 1.5-1-0.2-1-0.3-0.2-0.3-0.3-0.2-0.3-0.2-0.2-0.3-0.2-0.3-0.3-0.2-0.3-0.2-0.2-0.3 0.2-0.3 0.3-0.2v-2l-0.3 0.2-0.2 0.3-1 0.3-1 0.2v-2l1-0.2 1-0.3 0.2-0.3 0.3-0.2 0.5-1 0.5-1 0.3-1.5 0.2-1.5 12.5-1.8q12.5-1.7 27-2.7t17.5-2.5 10-1.5 8.5 0h1.5l0.2-0.3 0.3-0.2v-0.5q0-0.5 0.5-5.5l0.5-5 0.5-1 0.5-1 0.5-1 0.5-1 2.3 2.8q2.2 2.7 4.2 3l2 0.2 0.2-1.5 0.3-1.5 0.3-0.2 0.2-0.3 0.2-0.3 0.3-0.2 0.3-1 0.2-1 1-0.2 1-0.3 0.2-0.3 0.3-0.2 0.3-1 0.2-1-1-0.2q-1-0.3-1.2-2-0.3-1.8-3.3-4.8t-3.5-5.5l-0.5-2.5v-2l-0.3-0.2-0.2-0.3-0.2-0.3-0.3-0.2v-3l0.3 0.2 0.2 0.3 0.2 0.3 0.3 0.2 0.3 0.2 0.2 0.3 1.5 1.5q1.5 1.5 3 1.5h1.5l1-0.3 1-0.2-1.5-4.2q-1.5-4.3-0.5-4.6 1-0.2 1.8-2.2 0.7-2 3 2.2 2.2 4.3 3.2 4.6 1 0.2 1.5-3.3t1.5-3.5 1.8 8q0.7 8 4.4 12.2 3.8 4.3 8 6.6 4.3 2.2 8.6 11.2 4.2 9 5.2 9t1 1-1.2 0.5q-1.3-0.5-1 1.3 0.2 1.7-0.8 2-1 0.2-2 4-1 3.7-5.5 5.7t-5.7 2.3q-1.3 0.2-3.6-3-2.2-3.3-4.7-2.8t-4.5 3.2q-2 2.8 4.5 6.6 6.5 3.7 14 9.7t13.7 10.3q6.3 4.2 8.6 5.7 2.2 1.5 5.7 5.3 3.5 3.7 9 7.7t6.5 4.5zm-162.8-47.2q-0.2-0.3 0-0.6 0.3-0.2 0.3 0.3t-0.3 0.3z" fill-rule="evenodd" stroke="#141414" stroke-width=".5" fill="#141414"/>
 <path id="path18" d="m616.47 141.6 0.3 0.2 0.3 0.2 0.2 0.3 0.2 0.3 0.3 0.2v4q0 4-1 6t-5.3 5.5q-4.2 3.5-4.2 4.5t-5 4.8q-5 3.7-14 11.7l-9 8-0.2 0.3-0.3 0.2-0.3 0.2-0.2 0.3 3.2 2.3q3.3 2.2 3 4.4-0.2 2.3-2.2 2-2-0.2 1 5 3 5.3 4 6.3t1.2 1.3l0.3 0.2 0.3 2.5 0.2 2.5-1.5 0.2-1.5 0.3-1 0.5-1 0.5-0.2 0.3-0.3 0.2-0.3-1-0.2-1-1.5 0.2-1.5 0.3-0.2 0.3-0.3 0.2-0.3-0.2q-0.2-0.3-0.7-1.6-0.5-1.2-2.5-1.2t-2.2-1.5q-0.3-1.5-2-1.5-1.8 0-2.6-2-0.7-2-5-3.8l-4.2-1.7 0.2-0.3 0.3-0.2v-2l-0.3 0.2-0.2 0.3-0.2 0.3-0.3 0.2-0.5 1-0.5 1-8.5 20.5q-8.5 20.5-9 22l-0.5 1.5-0.3 1.5-0.2 1.5 2.5-0.8q2.5-0.7 4-0.7h1.5l0.2 0.3 0.3 0.2 0.3 0.2 0.2 0.3 0.2 0.3 0.3 0.2-1.7 1.5q-1.8 1.5 0.2 3.7 2 2.3 4.5 3.3t4.5 1.5l2 0.5 0.2 0.3 0.3 0.2 0.3 0.2 0.2 0.3 1 0.3 1 0.2-0.2 1.5-0.3 1.5-0.3 0.2-0.2 0.3-0.2 0.3-0.3 0.2-0.3 0.2-0.2 0.3-1 0.3-1 0.2-0.2 1-0.3 1-0.3 0.2-0.2 0.3-0.2 0.3-0.3 0.2-0.3-0.2-0.2-0.3h-2q-2 0-3 0.3-1 0.2-1-0.8t-1.5-1-1.7 1q-0.3 1-1.6-0.2-1.2-1.3-5.7-1.3t-6.5 0-4 0.5l-2 0.5-0.2-0.3-0.3-0.2-0.3-0.2-0.2-0.3-0.2-0.3-0.3-0.2-0.3-0.2-0.2-0.3-1-0.5-1-0.5-0.2-0.3-0.3-0.2v-3q0-3 2.5-7t5.5-17.5 8-24.5 5.3-20q0.2-9-2.8-9.5t-3.5-12.5-1.7-12.5q-1.3-0.5-2.3-12.5l-1-12-0.3-0.2-0.2-0.3-0.2-0.3-0.3-0.2-0.3-0.2-0.2-0.3-0.2-0.3-0.3-0.2-0.3-0.2-0.2-0.3-1-0.3-1-0.2-0.2 1.5-0.3 1.5-0.5 1.5-0.5 1.5-3 10.5q-3 10.5-4.3 16.7-1.2 6.3-2.4 8.6-1.3 2.2-2 1-0.8-1.3-1.8-0.8l-1 0.5-0.2 0.3-0.3 0.2-0.3 2-0.2 2h-2l-0.2-1-0.3-1-0.3-0.2-0.2-0.3-1-0.3-1-0.2-0.2-2-0.3-2-0.5-1-0.5-1 0.7-3.5q0.8-3.5 4.6-6.5 3.7-3 8.7-25t5.5-33.5 3.5-23 2.5-15.5-0.8-5q-0.2-1-1.4-1.5-1.3-0.5-2.3-9t1.5-13.5 7.2-8.2q4.8-3.3 9.8-2.8t12.5 6.2q7.5 5.8 7.5 7.6 0 1.7-1 2-1 0.2-2.8 7.7-1.7 7.5-1.4 9.7 0.2 2.3-1 3-1.3 0.8-4.6 5.6-3.2 4.7-5.2 5-2 0.2 2.8 7.7 4.7 7.5 11.7 28t6 23.5 0.3 4.8q1.2 1.7 18.7 2.7t22.7 3.3q5.3 2.2 5.6 2.4 0.2 0.3 0.4 0.6z" fill-rule="evenodd" stroke="#141414" stroke-width=".5" fill="#141414"/>
 <path id="path20" d="m68.271 160.3-0.5 13.5-0.3 0.2-0.2 0.3-5.8-0.3q-5.7-0.2-7.2 9.8t3 23 3.5 32.5-1.7 23.3q-0.8 3.7 1.2 5.2t3.5 1.8l1.5 0.2-0.2 1-0.3 1-0.3 0.2-0.2 0.3h-23l-0.2-0.3-0.3-0.2-0.3-0.2-0.2-0.3-0.2-0.3-0.3-0.2-0.3-0.2-0.2-0.3-0.2-0.3-0.3-0.2v-2q0-2 3.5-18l3.5-16v-6l-0.3 0.2-0.2 0.3-0.2 0.3-0.3 0.2-0.5 1.5-0.5 1.5-0.5 1-0.5 1-0.5 1-0.5 1-9.7 22.2q-9.8 22.3-11.3 22.6-1.5 0.2-0.7 1.7 0.7 1.5 1 1.7l0.2 0.3 0.2 0.3 0.3 0.2 0.3 1 0.2 1-4-0.2q-4-0.3-11.2-6.6-7.3-6.2-6.8-8.7t15-26.5 15.5-33.5-1.5-15.5-3-18-1.8-12.5q-1.2-0.5-2.7-2.7-1.5-2.3-7.3-10-5.7-7.8-4.7-10.8t9.7-10.8q8.8-7.7 14.6-13 5.7-5.2 7.2-19.2t5.2-17.8q3.8-3.7 11.8-4.2t12 0.8q4 1.2 4.8 2.7 0.7 1.5 1.2 10l0.5 8.5 0.3 0.2 0.2 0.3h2l1-0.5 1-0.5 1-0.5 1-0.5 0.2-0.3 0.3-0.2 0.3-0.2q0.2-0.3 5.7-3.8t12-9l6.5-5.5 0.2-0.3 0.3-0.2 0.3-0.2 0.2-0.3 0.2-0.3 0.3-0.2v-6l-0.3-0.2-0.2-0.3 0.2-0.3 0.3-0.2 0.3-0.2 0.2-0.3-7-0.5-7-0.5-1-0.5-1-0.5h4l6.5-0.5q6.5-0.5 11-0.5t7 0.7q2.5 0.8 2.5 4.3t-17 17.7q-17 14.3-25.2 19.6-8.3 5.2-8.6 8.2-0.2 3-2 3.5-1.7 0.5-2.7 13.5t-1.5 26.5z" fill-rule="evenodd" stroke="#141414" stroke-width=".5" fill="#141414"/>
 <path id="path22" d="m355.27 88.796 1-0.5 2.8 0.7q2.7 0.8 4.7 8.3t2.3 13q0.2 5.5-3.3 4.7-3.5-0.7-9.3-7.4-5.7-6.8-6.2-7.8l-0.5-1v-3l0.3-0.2 0.2-0.3 0.2-0.3 0.3-0.2 0.3-0.2 0.2-0.3 0.2-0.3 0.3-0.2 2.7-2.2q2.8-2.3 3.8-2.8z" fill-rule="evenodd" stroke="#fbfbfb" stroke-width=".5" fill="#fbfbfb"/>
</svg>
